<svg version="1.1" id="Layer_1" xmlns="http://www.w3.org/2000/svg" xmlns:xlink="http://www.w3.org/1999/xlink" x="0px" y="0px"
	 width="100%" viewBox="0 0 1353 623" enable-background="new 0 0 1353 623" xml:space="preserve">
<path fill="#FFFFFF" opacity="1.000000" stroke="none" 
	d="
M1.000000,212.000000 
	C1.000000,141.683411 1.000000,71.366821 1.000000,1.025115 
	C451.875885,1.025115 902.751770,1.025115 1354.000000,1.025115 
	C1354.000000,71.025391 1354.000000,141.051453 1353.659180,211.634247 
	C1353.092896,212.260452 1352.867310,212.329910 1352.196899,212.396362 
	C1316.011841,212.393356 1280.271606,212.393356 1244.094116,212.393356 
	C1244.094116,191.680161 1244.094116,171.757874 1244.094116,151.390686 
	C1241.689209,151.390686 1239.722778,151.390701 1237.756470,151.390686 
	C1169.093018,151.390060 1100.429565,151.415909 1031.766235,151.305496 
	C1028.558472,151.300339 1025.144287,150.578537 1022.179932,149.342545 
	C1004.858948,142.120712 987.644897,134.642303 970.392029,127.257027 
	C874.253601,86.103935 778.107361,44.969032 682.006409,3.728787 
	C678.842529,2.371060 676.362671,2.323545 673.164429,3.696110 
	C560.031128,52.248127 446.857819,100.707069 333.642914,149.068451 
	C330.396271,150.455292 326.638794,151.288498 323.117432,151.295090 
	C254.454239,151.423615 185.790726,151.390610 117.127281,151.390686 
	C115.176880,151.390686 113.226479,151.390686 110.817688,151.390686 
	C110.817688,172.056213 110.817688,192.142914 110.817688,212.390976 
	C74.358978,212.390976 38.364403,212.390976 2.028450,212.289459 
	C1.458048,212.125290 1.229024,212.062637 1.000000,212.000000 
z"/>
<path fill="#FFFFFF" opacity="1.000000" stroke="none" 
	d="
M1354.000000,623.000000 
	C1353.833374,623.333313 1353.684082,623.943909 1353.497192,623.955566 
	C1352.169067,624.039062 1350.833374,624.000000 1349.500000,624.000000 
	C900.000000,624.000000 450.500000,624.000000 1.341384,623.405334 
	C1.908703,622.741882 2.134637,622.673035 2.805557,622.606750 
	C453.043945,622.609314 902.837341,622.609253 1352.971924,622.711304 
	C1353.541992,622.875488 1353.770996,622.937744 1354.000000,623.000000 
z"/>
<path fill="#A6ACDA" opacity="1.000000" stroke="none" 
	d="
M1354.000000,622.534973 
	C1353.770996,622.937744 1353.541992,622.875488 1353.069092,622.277344 
	C1352.871582,620.411133 1352.958740,619.080872 1352.958740,617.750610 
	C1352.964966,484.290497 1352.965576,350.830353 1352.951050,217.370239 
	C1352.950928,215.713272 1352.749390,214.056335 1352.641846,212.399384 
	C1352.867310,212.329910 1353.092896,212.260452 1353.659180,212.095490 
	C1354.000000,348.689972 1354.000000,485.379974 1354.000000,622.534973 
z"/>
<path fill="#A6ACDA" opacity="1.000000" stroke="none" 
	d="
M2.360573,622.604187 
	C2.134637,622.673035 1.908703,622.741882 1.341384,622.905334 
	C1.000000,486.309998 1.000000,349.620026 1.000000,212.465012 
	C1.229024,212.062637 1.458048,212.125290 1.931205,212.723312 
	C2.128776,214.588928 2.041495,215.919174 2.041436,217.249405 
	C2.035475,350.710754 2.034951,484.172119 2.049805,617.633484 
	C2.049990,619.290405 2.252503,620.947266 2.360573,622.604187 
z"/>
<path fill="#02108E" opacity="1.000000" stroke="none" 
	d="
M2.805559,622.606750 
	C2.252503,620.947266 2.049990,619.290405 2.049805,617.633484 
	C2.034951,484.172119 2.035475,350.710754 2.041436,217.249405 
	C2.041495,215.919174 2.128776,214.588928 2.272582,212.824829 
	C38.364403,212.390976 74.358978,212.390976 110.817688,212.390976 
	C110.817688,192.142914 110.817688,172.056213 110.817688,151.390686 
	C113.226479,151.390686 115.176880,151.390686 117.127281,151.390686 
	C185.790726,151.390610 254.454239,151.423615 323.117432,151.295090 
	C326.638794,151.288498 330.396271,150.455292 333.642914,149.068451 
	C446.857819,100.707069 560.031128,52.248127 673.164429,3.696110 
	C676.362671,2.323545 678.842529,2.371060 682.006409,3.728787 
	C778.107361,44.969032 874.253601,86.103935 970.392029,127.257027 
	C987.644897,134.642303 1004.858948,142.120712 1022.179932,149.342545 
	C1025.144287,150.578537 1028.558472,151.300339 1031.766235,151.305496 
	C1100.429565,151.415909 1169.093018,151.390060 1237.756470,151.390686 
	C1239.722778,151.390701 1241.689209,151.390686 1244.094116,151.390686 
	C1244.094116,171.757874 1244.094116,191.680161 1244.094116,212.393356 
	C1280.271606,212.393356 1316.011841,212.393356 1352.196899,212.396362 
	C1352.749390,214.056335 1352.950928,215.713272 1352.951050,217.370239 
	C1352.965576,350.830353 1352.964966,484.290497 1352.958740,617.750610 
	C1352.958740,619.080872 1352.871582,620.411133 1352.727905,622.175293 
	C902.837341,622.609253 453.043945,622.609314 2.805559,622.606750 
M758.501404,309.999603 
	C753.056213,309.999603 747.610962,309.999603 741.765381,309.999603 
	C741.765381,368.938202 741.765381,427.346588 741.765381,485.926147 
	C729.290466,485.926147 717.228149,485.926147 704.739014,485.926147 
	C704.739014,427.248077 704.739014,368.843750 704.739014,310.261688 
	C686.412476,310.261688 668.515076,310.261688 650.186829,310.261688 
	C650.186829,368.924408 650.186829,427.326935 650.186829,485.934265 
	C637.695557,485.934265 625.636536,485.934265 613.159302,485.934265 
	C613.159302,427.265106 613.159302,368.861542 613.159302,310.342804 
	C592.208008,310.342804 571.677368,310.342804 551.005859,310.342804 
	C551.005859,377.496918 550.868774,444.308289 551.101929,511.118347 
	C551.160461,527.893555 564.299194,540.097534 581.034241,540.123291 
	C604.696472,540.159729 628.359375,540.029236 652.020813,540.174927 
	C664.306885,540.250610 673.093933,535.374817 677.528381,523.446777 
	C681.956177,535.478577 690.840759,540.256287 703.153381,540.176086 
	C726.314758,540.025208 749.477844,540.136658 772.640198,540.130920 
	C791.649353,540.126160 803.992432,527.895752 803.995850,509.008545 
	C804.007690,444.353882 804.000366,379.699249 804.000366,315.044586 
	C804.000366,313.445038 804.000366,311.845490 804.000366,309.999603 
	C788.780701,309.999603 774.140930,309.999603 758.501404,309.999603 
M516.130554,386.500031 
	C516.130249,370.833832 516.244873,355.166534 516.098694,339.501678 
	C515.939697,322.459015 503.232605,310.010529 486.218689,310.004883 
	C446.886993,309.991852 407.555267,309.994141 368.223572,310.004333 
	C350.599426,310.008881 338.005127,322.573395 338.003143,340.146332 
	C337.996765,396.477325 337.999847,452.808350 338.001221,509.139343 
	C338.001678,527.849670 350.209198,540.123108 368.855927,540.127930 
	C407.187683,540.137878 445.529755,539.604553 483.846710,540.356812 
	C502.461060,540.722351 516.597290,526.657288 516.316589,507.992279 
	C515.712463,467.836334 516.130737,427.665070 516.130554,386.500031 
M901.131226,478.428467 
	C901.131226,469.481750 901.131226,460.535034 901.131226,451.070007 
	C929.726746,451.070007 957.781982,451.070007 985.727905,451.070007 
	C985.727905,433.501373 985.727905,416.462738 985.727905,399.039001 
	C957.402649,399.039001 929.478760,399.039001 901.460205,399.039001 
	C901.460205,387.255310 901.460205,375.867554 901.460205,363.957825 
	C929.840271,363.957825 957.895691,363.957825 985.803284,363.957825 
	C985.803284,345.695160 985.803284,327.960419 985.803284,310.288086 
	C936.736084,310.288086 887.997559,310.288086 839.258667,310.288086 
	C839.258667,386.985962 839.258667,463.395569 839.258667,539.886597 
	C888.255920,539.886597 936.994202,539.886597 985.782654,539.886597 
	C985.782654,521.931519 985.782654,504.223419 985.782654,485.940796 
	C957.400696,485.940796 929.363281,485.940796 901.131165,485.940796 
	C901.131165,483.378662 901.131165,481.393463 901.131226,478.428467 
M1099.296265,496.210785 
	C1081.272217,490.583679 1063.248169,484.956543 1045.119751,479.296844 
	C1045.119751,497.422577 1045.119751,515.568298 1045.119751,534.047791 
	C1078.780396,544.085632 1112.761230,551.846252 1148.202026,548.758972 
	C1164.095825,547.374390 1178.879272,542.675415 1189.768921,529.809875 
	C1205.074951,511.726593 1212.857056,491.317902 1207.963013,467.517334 
	C1203.704102,446.805634 1190.935669,431.872314 1173.857910,420.165131 
	C1159.625122,410.408173 1143.722412,404.087006 1128.118408,397.036377 
	C1120.690430,393.680084 1113.618408,388.903290 1107.465332,383.532471 
	C1101.059326,377.940826 1100.891602,369.124969 1106.535522,363.464264 
	C1109.781128,360.209015 1114.317383,356.941772 1118.640137,356.345886 
	C1126.238159,355.298523 1134.603882,354.650635 1141.782593,356.768707 
	C1158.605469,361.732391 1174.924805,368.408203 1191.427856,374.446167 
	C1194.929810,375.727386 1198.345703,377.244110 1202.391235,378.892731 
	C1202.391235,362.220154 1202.482300,346.405090 1202.236816,330.595245 
	C1202.214600,329.164917 1200.309204,327.140564 1198.796265,326.453064 
	C1183.700073,319.593323 1168.904053,311.752869 1153.242432,306.531372 
	C1128.053955,298.133698 1102.619751,299.040039 1078.539917,311.201263 
	C1041.473999,329.920990 1028.953003,377.729279 1052.025269,411.095886 
	C1061.366089,424.604218 1074.210449,433.947205 1088.718140,441.135590 
	C1103.004639,448.214478 1117.616699,454.668640 1131.652832,462.203613 
	C1136.859741,464.998749 1141.671143,469.475250 1145.176514,474.271362 
	C1150.300659,481.282410 1148.735352,489.871277 1142.101196,494.685425 
	C1138.715698,497.142151 1134.539795,498.896484 1130.458252,499.931335 
	C1119.997314,502.583649 1110.094116,498.615448 1099.296265,496.210785 
M217.396866,423.500183 
	C217.396866,369.283813 217.396866,315.067444 217.396866,260.950012 
	C196.390488,260.950012 176.159744,260.950012 155.929153,260.950012 
	C155.929153,354.136078 155.929153,446.974396 155.929153,539.817383 
	C208.460175,539.817383 260.664337,539.817383 312.713989,539.817383 
	C312.713989,521.802246 312.713989,504.103485 312.713989,486.121246 
	C280.851013,486.121246 249.403717,486.121246 217.396957,486.121246 
	C217.396957,465.389587 217.396957,444.944885 217.396866,423.500183 
M999.868408,276.502014 
	C999.868408,293.233215 999.868408,309.964386 999.868408,326.730804 
	C1014.496338,326.730804 1028.558472,326.730804 1042.784424,326.730804 
	C1045.735474,304.700348 1048.653931,282.913849 1051.606689,260.870728 
	C1033.999390,260.870728 1017.135986,260.870728 999.868408,260.870728 
	C999.868408,265.919708 999.868408,270.711151 999.868408,276.502014 
M1221.971436,311.328308 
	C1221.306274,311.821228 1220.606567,312.273987 1219.981445,312.813202 
	C1213.006958,318.828949 1211.357666,329.320526 1216.129761,337.221252 
	C1220.764526,344.894226 1230.970337,348.215912 1239.722412,344.899902 
	C1248.179565,341.695618 1253.103394,332.663086 1251.313721,323.636353 
	C1248.723022,310.571045 1235.843140,304.876556 1221.971436,311.328308 
z"/>
<path fill="#FEFEFF" opacity="1.000000" stroke="none" 
	d="
M759.001221,309.999603 
	C774.140930,309.999603 788.780701,309.999603 804.000366,309.999603 
	C804.000366,311.845490 804.000366,313.445038 804.000366,315.044586 
	C804.000366,379.699249 804.007690,444.353882 803.995850,509.008545 
	C803.992432,527.895752 791.649353,540.126160 772.640198,540.130920 
	C749.477844,540.136658 726.314758,540.025208 703.153381,540.176086 
	C690.840759,540.256287 681.956177,535.478577 677.528381,523.446777 
	C673.093933,535.374817 664.306885,540.250610 652.020813,540.174927 
	C628.359375,540.029236 604.696472,540.159729 581.034241,540.123291 
	C564.299194,540.097534 551.160461,527.893555 551.101929,511.118347 
	C550.868774,444.308289 551.005859,377.496918 551.005859,310.342804 
	C571.677368,310.342804 592.208008,310.342804 613.159302,310.342804 
	C613.159302,368.861542 613.159302,427.265106 613.159302,485.934265 
	C625.636536,485.934265 637.695557,485.934265 650.186829,485.934265 
	C650.186829,427.326935 650.186829,368.924408 650.186829,310.261688 
	C668.515076,310.261688 686.412476,310.261688 704.739014,310.261688 
	C704.739014,368.843750 704.739014,427.248077 704.739014,485.926147 
	C717.228149,485.926147 729.290466,485.926147 741.765381,485.926147 
	C741.765381,427.346588 741.765381,368.938202 741.765381,309.999603 
	C747.610962,309.999603 753.056213,309.999603 759.001221,309.999603 
z"/>
<path fill="#FFFFFF" opacity="1.000000" stroke="none" 
	d="
M516.130554,387.000061 
	C516.130737,427.665070 515.712463,467.836334 516.316589,507.992279 
	C516.597290,526.657288 502.461060,540.722351 483.846710,540.356812 
	C445.529755,539.604553 407.187683,540.137878 368.855927,540.127930 
	C350.209198,540.123108 338.001678,527.849670 338.001221,509.139343 
	C337.999847,452.808350 337.996765,396.477325 338.003143,340.146332 
	C338.005127,322.573395 350.599426,310.008881 368.223572,310.004333 
	C407.555267,309.994141 446.886993,309.991852 486.218689,310.004883 
	C503.232605,310.010529 515.939697,322.459015 516.098694,339.501678 
	C516.244873,355.166534 516.130249,370.833832 516.130554,387.000061 
M399.999573,480.394775 
	C399.999573,482.166962 399.999573,483.939148 399.999573,485.718964 
	C418.269409,485.718964 436.000397,485.718964 453.626801,485.718964 
	C453.626801,445.062958 453.626801,404.689758 453.626801,364.360413 
	C435.651855,364.360413 418.051758,364.360413 399.999542,364.360413 
	C399.999542,402.865234 399.999542,441.142242 399.999573,480.394775 
z"/>
<path fill="#FFFFFF" opacity="1.000000" stroke="none" 
	d="
M901.131226,478.918396 
	C901.131165,481.393463 901.131165,483.378662 901.131165,485.940796 
	C929.363281,485.940796 957.400696,485.940796 985.782654,485.940796 
	C985.782654,504.223419 985.782654,521.931519 985.782654,539.886597 
	C936.994202,539.886597 888.255920,539.886597 839.258667,539.886597 
	C839.258667,463.395569 839.258667,386.985962 839.258667,310.288086 
	C887.997559,310.288086 936.736084,310.288086 985.803284,310.288086 
	C985.803284,327.960419 985.803284,345.695160 985.803284,363.957825 
	C957.895691,363.957825 929.840271,363.957825 901.460205,363.957825 
	C901.460205,375.867554 901.460205,387.255310 901.460205,399.039001 
	C929.478760,399.039001 957.402649,399.039001 985.727905,399.039001 
	C985.727905,416.462738 985.727905,433.501373 985.727905,451.070007 
	C957.781982,451.070007 929.726746,451.070007 901.131226,451.070007 
	C901.131226,460.535034 901.131226,469.481750 901.131226,478.918396 
z"/>
<path fill="#FEFEFF" opacity="1.000000" stroke="none" 
	d="
M1099.678589,496.353821 
	C1110.094116,498.615448 1119.997314,502.583649 1130.458252,499.931335 
	C1134.539795,498.896484 1138.715698,497.142151 1142.101196,494.685425 
	C1148.735352,489.871277 1150.300659,481.282410 1145.176514,474.271362 
	C1141.671143,469.475250 1136.859741,464.998749 1131.652832,462.203613 
	C1117.616699,454.668640 1103.004639,448.214478 1088.718140,441.135590 
	C1074.210449,433.947205 1061.366089,424.604218 1052.025269,411.095886 
	C1028.953003,377.729279 1041.473999,329.920990 1078.539917,311.201263 
	C1102.619751,299.040039 1128.053955,298.133698 1153.242432,306.531372 
	C1168.904053,311.752869 1183.700073,319.593323 1198.796265,326.453064 
	C1200.309204,327.140564 1202.214600,329.164917 1202.236816,330.595245 
	C1202.482300,346.405090 1202.391235,362.220154 1202.391235,378.892731 
	C1198.345703,377.244110 1194.929810,375.727386 1191.427856,374.446167 
	C1174.924805,368.408203 1158.605469,361.732391 1141.782593,356.768707 
	C1134.603882,354.650635 1126.238159,355.298523 1118.640137,356.345886 
	C1114.317383,356.941772 1109.781128,360.209015 1106.535522,363.464264 
	C1100.891602,369.124969 1101.059326,377.940826 1107.465332,383.532471 
	C1113.618408,388.903290 1120.690430,393.680084 1128.118408,397.036377 
	C1143.722412,404.087006 1159.625122,410.408173 1173.857910,420.165131 
	C1190.935669,431.872314 1203.704102,446.805634 1207.963013,467.517334 
	C1212.857056,491.317902 1205.074951,511.726593 1189.768921,529.809875 
	C1178.879272,542.675415 1164.095825,547.374390 1148.202026,548.758972 
	C1112.761230,551.846252 1078.780396,544.085632 1045.119751,534.047791 
	C1045.119751,515.568298 1045.119751,497.422577 1045.119751,479.296844 
	C1063.248169,484.956543 1081.272217,490.583679 1099.678589,496.353821 
z"/>
<path fill="#FFFFFF" opacity="1.000000" stroke="none" 
	d="
M217.396912,424.000183 
	C217.396957,444.944885 217.396957,465.389587 217.396957,486.121246 
	C249.403717,486.121246 280.851013,486.121246 312.713989,486.121246 
	C312.713989,504.103485 312.713989,521.802246 312.713989,539.817383 
	C260.664337,539.817383 208.460175,539.817383 155.929153,539.817383 
	C155.929153,446.974396 155.929153,354.136078 155.929153,260.950012 
	C176.159744,260.950012 196.390488,260.950012 217.396866,260.950012 
	C217.396866,315.067444 217.396866,369.283813 217.396912,424.000183 
z"/>
<path fill="#FEFEFF" opacity="1.000000" stroke="none" 
	d="
M999.868408,276.002289 
	C999.868408,270.711151 999.868408,265.919708 999.868408,260.870728 
	C1017.135986,260.870728 1033.999390,260.870728 1051.606689,260.870728 
	C1048.653931,282.913849 1045.735474,304.700348 1042.784424,326.730804 
	C1028.558472,326.730804 1014.496338,326.730804 999.868408,326.730804 
	C999.868408,309.964386 999.868408,293.233215 999.868408,276.002289 
z"/>
<path fill="#F0F0F9" opacity="1.000000" stroke="none" 
	d="
M1222.295654,311.139282 
	C1235.843140,304.876556 1248.723022,310.571045 1251.313721,323.636353 
	C1253.103394,332.663086 1248.179565,341.695618 1239.722412,344.899902 
	C1230.970337,348.215912 1220.764526,344.894226 1216.129761,337.221252 
	C1211.357666,329.320526 1213.006958,318.828949 1219.981445,312.813202 
	C1220.606567,312.273987 1221.306274,311.821228 1222.295654,311.139282 
M1234.135986,342.815125 
	C1235.426758,342.493286 1236.760986,342.288635 1238.001221,341.830078 
	C1244.567505,339.402283 1248.802368,331.872070 1247.566406,324.936859 
	C1246.160767,317.049774 1240.440430,311.924683 1232.924438,311.818634 
	C1224.352295,311.697693 1217.738159,318.058472 1217.416626,326.732513 
	C1217.078735,335.846252 1223.484619,342.341125 1234.135986,342.815125 
z"/>
<path fill="#010F8E" opacity="1.000000" stroke="none" 
	d="
M399.999573,479.906982 
	C399.999542,441.142242 399.999542,402.865234 399.999542,364.360413 
	C418.051758,364.360413 435.651855,364.360413 453.626801,364.360413 
	C453.626801,404.689758 453.626801,445.062958 453.626801,485.718964 
	C436.000397,485.718964 418.269409,485.718964 399.999573,485.718964 
	C399.999573,483.939148 399.999573,482.166962 399.999573,479.906982 
z"/>
<path fill="#0C1993" opacity="1.000000" stroke="none" 
	d="
M1233.725830,342.833679 
	C1223.484619,342.341125 1217.078735,335.846252 1217.416626,326.732513 
	C1217.738159,318.058472 1224.352295,311.697693 1232.924438,311.818634 
	C1240.440430,311.924683 1246.160767,317.049774 1247.566406,324.936859 
	C1248.802368,331.872070 1244.567505,339.402283 1238.001221,341.830078 
	C1236.760986,342.288635 1235.426758,342.493286 1233.725830,342.833679 
M1241.122681,324.165436 
	C1241.033691,316.662384 1235.892822,314.275269 1225.166748,316.990326 
	C1225.166748,323.015320 1225.090698,329.127960 1225.244507,335.234863 
	C1225.268921,336.207977 1226.325806,337.155090 1226.905518,338.114136 
	C1227.547852,337.218811 1228.613281,336.381500 1228.745605,335.416229 
	C1229.029785,333.344147 1228.832764,331.206055 1228.832764,329.031281 
	C1236.112305,327.948273 1234.131958,339.030975 1241.625854,337.898682 
	C1239.710205,334.642517 1238.076050,331.864777 1237.119873,330.239594 
	C1238.717651,328.082306 1239.864380,326.533844 1241.122681,324.165436 
z"/>
<path fill="#E7E8F5" opacity="1.000000" stroke="none" 
	d="
M1241.066895,324.575378 
	C1239.864380,326.533844 1238.717651,328.082306 1237.119873,330.239594 
	C1238.076050,331.864777 1239.710205,334.642517 1241.625854,337.898682 
	C1234.131958,339.030975 1236.112305,327.948273 1228.832764,329.031281 
	C1228.832764,331.206055 1229.029785,333.344147 1228.745605,335.416229 
	C1228.613281,336.381500 1227.547852,337.218811 1226.905518,338.114166 
	C1226.325806,337.155090 1225.268921,336.207977 1225.244507,335.234863 
	C1225.090698,329.127960 1225.166748,323.015320 1225.166748,316.990326 
	C1235.892822,314.275269 1241.033691,316.662384 1241.066895,324.575378 
M1229.040161,325.138977 
	C1231.665405,324.959045 1234.310669,324.897827 1236.892334,324.460632 
	C1237.246094,324.400665 1237.603149,321.603546 1237.418213,321.535156 
	C1234.938721,320.618225 1232.367188,319.945740 1229.802856,319.272278 
	C1229.617432,319.223572 1229.310181,319.638489 1228.843628,320.009583 
	C1228.843628,321.320068 1228.843628,322.799683 1229.040161,325.138977 
z"/>
<path fill="#152198" opacity="1.000000" stroke="none" 
	d="
M1228.941895,324.709137 
	C1228.843628,322.799683 1228.843628,321.320068 1228.843628,320.009583 
	C1229.310181,319.638489 1229.617432,319.223572 1229.802856,319.272278 
	C1232.367188,319.945740 1234.938721,320.618225 1237.418213,321.535156 
	C1237.603149,321.603546 1237.246094,324.400665 1236.892334,324.460632 
	C1234.310669,324.897827 1231.665405,324.959045 1228.941895,324.709137 
z"/>
</svg>